<?xml version="1.0" standalone="no"?><!DOCTYPE svg PUBLIC "-//W3C//DTD SVG 1.1//EN" "http://www.w3.org/Graphics/SVG/1.1/DTD/svg11.dtd"><svg t="1775645725712" class="icon" viewBox="0 0 1024 1024" version="1.1" xmlns="http://www.w3.org/2000/svg" p-id="4645" xmlns:xlink="http://www.w3.org/1999/xlink" width="200" height="200"><path d="M832.1 1010.268H191.901c-19.632 0-35.574-15.941-35.574-35.573s15.942-35.574 35.574-35.574H832.1c19.632 0 35.574 15.942 35.574 35.574s-15.942 35.574-35.574 35.574z m0-142.298H191.901c-98.015 0-177.874-74.397-177.874-165.918V180.388c0-91.519 79.859-165.918 177.874-165.918H832.1c98.163 0 177.874 74.398 177.874 165.918v521.666c-0.148 91.519-79.859 165.916-177.874 165.916zM191.9 85.619c-58.897 0-106.724 42.513-106.724 94.768v521.666c0 52.254 47.826 94.767 106.724 94.767h640.199c58.897 0 106.724-42.512 106.724-94.768V180.388c0-52.255-47.826-94.768-106.724-94.768H191.9z m0 0z" fill="#25E0AE" p-id="4646"></path><path d="M599.877 570.93c-7.54 0-14.96-2.92-20.798-8.515L403.324 386.54c-11.433-11.433-11.433-30.043 0-41.476s30.042-11.433 41.476 0L620.676 520.94c11.433 11.433 11.433 30.042 0 41.475-5.838 5.595-13.258 8.515-20.799 8.515z m0 0z" fill="#25E0AE" p-id="4647"></path><path d="M424 570.93c-16.176 0-29.312-13.136-29.312-29.313V336.549h205.19c16.176 0 29.312 13.136 29.312 29.313s-13.136 29.313-29.313 29.313H453.314v146.563c0 16.177-13.136 29.192-29.313 29.192z m0 0z" fill="#25E0AE" p-id="4648"></path></svg>